<?xml version="1.0" encoding="utf-8"?>
<!-- Generator: Adobe Illustrator 16.2.0, SVG Export Plug-In . SVG Version: 6.00 Build 0)  -->
<!DOCTYPE svg PUBLIC "-//W3C//DTD SVG 1.1//EN" "http://www.w3.org/Graphics/SVG/1.1/DTD/svg11.dtd">
<svg version="1.1" id="Calque_1" xmlns="http://www.w3.org/2000/svg" xmlns:xlink="http://www.w3.org/1999/xlink" x="0px" y="0px"
	 width="28px" height="28px" viewBox="0 0 28 28" enable-background="new 0 0 28 28" xml:space="preserve">
<g>
	<path fill="#FFFFFF" d="M12.683,10.04c-0.353-1.239-0.921-1.605-1.806-1.605c-0.096,0-0.191,0.013-0.284,0.039
		C10.21,8.582,9.906,8.901,9.736,9.376c-0.173,0.482-0.185,0.984-0.034,1.558c0.269,1.021,0.995,1.763,1.728,1.763
		c0.097,0,0.191-0.013,0.283-0.039C12.514,12.432,13.015,11.209,12.683,10.04z M14-0.001C6.268-0.001-0.002,6.267-0.002,14
		c0,7.733,6.27,14.002,14.002,14.002c7.733,0,14.002-6.269,14.002-14.002C28.002,6.267,21.733-0.001,14-0.001z M13.193,20.012
		c-0.879,0.428-1.826,0.474-2.193,0.474c-0.069,0-0.109-0.002-0.116-0.002c0,0-0.025,0.001-0.071,0.001
		c-0.57,0-3.416-0.132-3.416-2.724c0-2.547,3.099-2.745,4.048-2.745h0.025c-0.549-0.732-0.435-1.472-0.435-1.472
		c-0.049,0.004-0.118,0.007-0.205,0.007c-0.357,0-1.047-0.058-1.641-0.44c-0.725-0.467-1.093-1.261-1.093-2.362
		c0-3.107,3.394-3.233,3.428-3.233h3.389v0.073c0,0.379-0.68,0.452-1.146,0.515c-0.156,0.021-0.473,0.055-0.562,0.101
		c0.857,0.458,0.997,1.178,0.997,2.252c0,1.222-0.479,1.868-0.986,2.322c-0.313,0.28-0.562,0.502-0.562,0.797
		c0,0.29,0.34,0.587,0.732,0.932c0.644,0.566,1.525,1.339,1.525,2.64C14.913,18.494,14.334,19.458,13.193,20.012z M20.604,13.987
		h-2.211v2.21h-1.399v-2.21h-2.211v-1.4h2.211v-2.211h1.399v2.211h2.211V13.987z M11.407,15.68c-0.075,0-0.151,0.003-0.228,0.008
		c-0.648,0.048-1.245,0.29-1.68,0.684c-0.428,0.389-0.646,0.876-0.615,1.373c0.064,1.035,1.178,1.644,2.529,1.545
		c1.332-0.097,2.219-0.861,2.153-1.898C13.506,16.415,12.659,15.68,11.407,15.68z"/>
</g>
</svg>
