<?xml version="1.0" encoding="utf-8"?>
<!-- Generator: Adobe Illustrator 16.2.0, SVG Export Plug-In . SVG Version: 6.00 Build 0)  -->
<!DOCTYPE svg PUBLIC "-//W3C//DTD SVG 1.1//EN" "http://www.w3.org/Graphics/SVG/1.1/DTD/svg11.dtd">
<svg version="1.1" id="Calque_1" xmlns="http://www.w3.org/2000/svg" xmlns:xlink="http://www.w3.org/1999/xlink" x="0px" y="0px"
	 width="28px" height="28px" viewBox="0 0 28 28" enable-background="new 0 0 28 28" xml:space="preserve">
<g>
	<path fill="#FFFFFF" d="M14,0.001C6.269,0.001,0.001,6.269,0.001,14S6.269,27.999,14,27.999c7.731,0,13.999-6.268,13.999-13.999
		S21.731,0.001,14,0.001z M19.694,11.469c0.006,0.119,0.008,0.237,0.008,0.357c0,3.644-2.773,7.845-7.845,7.845
		c-1.557,0-3.006-0.456-4.226-1.239c0.215,0.026,0.435,0.039,0.658,0.039c1.292,0,2.48-0.44,3.424-1.181
		c-1.207-0.022-2.225-0.819-2.576-1.915c0.168,0.032,0.341,0.051,0.519,0.051c0.251,0,0.495-0.034,0.727-0.098
		c-1.261-0.254-2.212-1.367-2.212-2.704c0-0.012,0-0.023,0-0.035c0.372,0.207,0.797,0.331,1.249,0.345
		c-0.74-0.495-1.226-1.338-1.226-2.295c0-0.505,0.135-0.979,0.373-1.386c1.359,1.668,3.392,2.766,5.683,2.881
		c-0.047-0.202-0.071-0.412-0.071-0.628c0-1.523,1.235-2.757,2.756-2.757c0.793,0,1.51,0.335,2.014,0.871
		c0.628-0.124,1.218-0.353,1.75-0.669c-0.205,0.644-0.643,1.184-1.212,1.526c0.558-0.067,1.089-0.215,1.583-0.435
		C20.7,10.595,20.232,11.081,19.694,11.469z"/>
</g>
</svg>
