<?xml version="1.0" encoding="utf-8"?>
<!-- Generator: Adobe Illustrator 16.2.0, SVG Export Plug-In . SVG Version: 6.00 Build 0)  -->
<!DOCTYPE svg PUBLIC "-//W3C//DTD SVG 1.1//EN" "http://www.w3.org/Graphics/SVG/1.1/DTD/svg11.dtd">
<svg version="1.1" id="Calque_1" xmlns="http://www.w3.org/2000/svg" xmlns:xlink="http://www.w3.org/1999/xlink" x="0px" y="0px"
	 width="32px" height="25.938px" viewBox="0 0 32 25.938" enable-background="new 0 0 32 25.938" xml:space="preserve">
<g>
	<path fill-rule="evenodd" clip-rule="evenodd" fill="#111111" d="M0,25.938V3c0-1.657,1.343-3,3-3h26c1.657,0,3,1.343,3,3v22.938"
		/>
</g>
<g opacity="0.33">
	<path fill="#FFFFFF" d="M20.285,9.4c0.47-0.465,0.978-0.56,1.447-0.095c0.469,0.464,0.374,0.997-0.096,1.462l-4.791,4.657
		c-0.471,0.465-1.232,0.465-1.701,0l-4.793-4.657c-0.469-0.465-0.469-1.06,0-1.525c0.471-0.465,1.041-0.18,1.512,0.285l4.131,4.188
		L20.285,9.4z"/>
</g>
</svg>
