<?xml version="1.0" encoding="utf-8"?>
<!-- Generator: Adobe Illustrator 16.2.0, SVG Export Plug-In . SVG Version: 6.00 Build 0)  -->
<!DOCTYPE svg PUBLIC "-//W3C//DTD SVG 1.1//EN" "http://www.w3.org/Graphics/SVG/1.1/DTD/svg11.dtd">
<svg version="1.1" id="Calque_1" xmlns="http://www.w3.org/2000/svg" xmlns:xlink="http://www.w3.org/1999/xlink" x="0px" y="0px"
	 width="32px" height="32px" viewBox="0 0 32 32" enable-background="new 0 0 32 32" xml:space="preserve">
<g>
	<g>
		<path fill="#FFFFFF" d="M16,2c7.72,0,14,6.28,14,14s-6.28,14-14,14S2,23.72,2,16S8.28,2,16,2 M16,0C7.163,0,0,7.164,0,16
			c0,8.837,7.163,16,16,16s16-7.163,16-16C32,7.164,24.837,0,16,0L16,0z"/>
	</g>
</g>
<g>
	<path fill="#FFFFFF" d="M24.4,15.553l-6.635-4.402c-0.51-0.339-0.927-0.089-0.927,0.555v8.545c0,0.645,0.417,0.895,0.927,0.556
		l6.635-4.403c0,0,0.249-0.177,0.249-0.426C24.649,15.731,24.4,15.553,24.4,15.553z M16.331,15.553l-6.405-4.402
		C9.417,10.812,9,11.062,9,11.707v8.545c0,0.645,0.417,0.895,0.926,0.556l6.405-4.403c0,0,0.248-0.177,0.248-0.426
		C16.579,15.731,16.331,15.553,16.331,15.553z"/>
</g>
</svg>
