<?xml version="1.0" encoding="utf-8"?>
<!-- Generator: Adobe Illustrator 16.2.0, SVG Export Plug-In . SVG Version: 6.00 Build 0)  -->
<!DOCTYPE svg PUBLIC "-//W3C//DTD SVG 1.1//EN" "http://www.w3.org/Graphics/SVG/1.1/DTD/svg11.dtd">
<svg version="1.1" id="Calque_1" xmlns="http://www.w3.org/2000/svg" xmlns:xlink="http://www.w3.org/1999/xlink" x="0px" y="0px"
	 width="110px" height="38.467px" viewBox="0 0 110 38.467" enable-background="new 0 0 110 38.467" xml:space="preserve">
<g>
	<path fill="#EFF637" d="M107.825,25.251c-1.083,1.805-90.081-0.307-92.441,0.443L23.06,4.776c0.833-2.083,2.277-2.61,2.277-2.61
		L24.615,0c-1.638,0-3.027,0.861-3.971,2.027C15.063,4.692,7.288,6.775,7.288,12.467c-0.027,3.221,2.305,5.359,5.637,5.359v-3.221
		c-1.028,0-2.361-0.583-2.361-2.221c0-2.833,4.276-4.359,7.914-6.053l-7.325,19.744C5.738,27.074,0,29.276,0,34.163
		c0,2.582,2.138,4.304,4.499,4.304c4.415,0,7.025-2.888,9.691-9.719c4.47-1.276,93.469,0.251,95.051-2.47
		C110.129,24.624,108.352,25.278,107.825,25.251z M4.832,35.219c-0.917,0-1.472-0.528-1.472-1.415c0-2.195,2.999-3.223,6.442-4.056
		C8.191,33.413,6.636,35.219,4.832,35.219z"/>
	<path fill="#EFF637" d="M37.954,15.207c-1.943,3.36-3.943,5.553-5.165,5.553c-0.555,0-1-0.5,0.222-3.526l3.526-8.802l-4.693,1.888
		c0,0-0.527-2.249-3.11-2.249c-5.109,0-7.553,8.691-7.553,11.662c0,1.917,1.028,3.471,2.999,3.471c2.388,0,4.221-2.275,4.221-2.275
		s0.222,2.275,2.999,2.275c3.221,0,5.832-3.221,7.97-6.969C39.204,15.762,38.482,15.234,37.954,15.207z M25.875,20.038
		c-0.555,0-0.889-0.306-0.889-1.055c0-1.916,2.166-7.664,4.526-7.664c1.278,0,1.278,1.694,1.278,1.694l-1.972,4.859
		C28.819,17.872,27.458,20.038,25.875,20.038z"/>
	<path fill="#EFF637" d="M60.891,15.207c-1.943,3.36-3.943,5.553-5.164,5.553c-0.473,0-1.083-0.333,0.221-3.526l1.445-3.61
		c0.582-1.416,0.889-2.416,0.889-3.221c0-1.444-0.944-2.333-2.555-2.333c-1.972,0-3.943,1.36-4.942,2.333
		c0.027-1.417-0.944-2.333-2.5-2.333c-1.916,0-3.748,1.305-4.304,1.833l-3.332-1.472l-5.832,14.412h3.916l3.887-9.608
		c1.194-1.36,2.472-1.971,3.193-1.971c0.417,0,0.722,0.222,0.722,0.555c0,0.444-0.472,1.583-0.972,2.833
		c-0.666,1.694-2.693,6.664-3.304,8.191h3.943l3.887-9.636c1.166-1.305,2.471-1.943,3.193-1.943c0.417,0,0.75,0.222,0.75,0.583
		c0,0.417-0.472,1.527-0.972,2.805l-0.666,1.61c-1.972,4.942-0.722,6.941,1.944,6.941c3.166,0,5.748-3.11,7.97-6.969
		C62.141,15.762,61.418,15.234,60.891,15.207z"/>
	<path fill="#EFF637" d="M80.717,20.756c-1.052,0.009-0.832,0.004-2.054,0.004c-0.474,0-1.083-0.333,0.222-3.526l1.444-3.61
		c0.583-1.416,0.889-2.416,0.889-3.221c0-1.444-0.944-2.333-2.555-2.333c-1.972,0-3.942,1.36-4.942,2.333
		c0.027-1.417-0.943-2.333-2.5-2.333c-1.914,0-3.748,1.305-4.304,1.833l-3.332-1.472l-5.831,14.412h3.915l3.888-9.608
		c1.193-1.36,2.471-1.971,3.193-1.971c0.416,0,0.723,0.222,0.723,0.555c0,0.444-0.473,1.583-0.973,2.833
		c-0.667,1.694-2.693,6.664-3.305,8.191h3.943l3.887-9.636c1.166-1.305,2.472-1.943,3.193-1.943c0.416,0,0.749,0.222,0.749,0.583
		c0,0.417-0.472,1.527-0.972,2.805l-0.666,1.61c-1.973,4.942-0.721,6.779,1.943,6.879c1.695,0.064,2.68,0.061,3.918-0.664
		C81.027,22.005,80.836,21.289,80.717,20.756z"/>
	<path fill="#EFF637" d="M95.172,7.098c1.193,0,2.221-1.027,2.221-2.221s-1.026-2.166-2.221-2.166c-1.193,0-2.166,0.972-2.166,2.166
		S93.979,7.098,95.172,7.098z M97.171,15.207c-1.942,3.36-3.971,5.553-5.192,5.553c-0.526,0-1.026-0.417,0.223-3.526l3.555-8.802
		H91.84l-3.222,7.914c-1.999,4.998-0.36,6.858,2.083,6.858c3.025,0,5.72-3.193,7.886-6.969
		C98.421,15.762,97.699,15.234,97.171,15.207z"/>
	<path fill="#EFF637" d="M108.712,20.635c-0.567,0.091-0.019,0.125-1.239,0.125c-0.472,0-1.082-0.333,0.223-3.526l1.443-3.61
		c0.584-1.444,0.86-2.443,0.86-3.221c0-1.472-0.916-2.333-2.498-2.333c-1.917,0-3.749,1.305-4.306,1.833l-3.332-1.472l-5.83,14.412
		h3.914l3.889-9.608c1.193-1.36,2.473-1.971,3.193-1.971c0.416,0,0.722,0.222,0.722,0.583c0,0.417-0.416,1.472-0.972,2.805
		l-0.639,1.61c-1.973,4.915-0.75,6.941,1.942,6.941c0.929,0,1.562-0.031,2.388-0.672C109.533,21.646,109.779,20.38,108.712,20.635z"
		/>
	<path fill="#EFF637" d="M84.3,23.051c1.194,0,2.222-1.026,2.222-2.222c0-1.193-1.026-2.166-2.222-2.166
		c-1.192,0-2.165,0.972-2.165,2.166C82.135,22.022,83.107,23.051,84.3,23.051z"/>
</g>
</svg>
